<svg id="Ebene_1" data-name="Ebene 1" xmlns="http://www.w3.org/2000/svg" viewBox="0 0 2754.31 344.39"><path d="M460.42,288.38a27.94,27.94,0,0,0-35.56,17.33L361.07,490.78A28,28,0,0,0,414,509l63.79-185.07A28,28,0,0,0,460.42,288.38Z" transform="translate(-359.53 -183.47)"/><path d="M613.32,190.55a27.92,27.92,0,0,0-35.55,17.33l-97.51,282.9a28,28,0,0,0,17.33,35.55,27.66,27.66,0,0,0,9.11,1.53A28,28,0,0,0,533.14,509l97.51-282.9A28,28,0,0,0,613.32,190.55Z" transform="translate(-359.53 -183.47)"/><path d="M732.51,190.55A27.94,27.94,0,0,0,697,207.88l-97.51,282.9A28,28,0,0,0,652.32,509l97.51-282.9A28,28,0,0,0,732.51,190.55Z" transform="translate(-359.53 -183.47)"/><path d="M817.78,288.38a27.92,27.92,0,0,0-35.55,17.33l-63.8,185.07a28,28,0,0,0,17.33,35.55,27.66,27.66,0,0,0,9.11,1.53A28,28,0,0,0,771.31,509L835.1,323.94A28,28,0,0,0,817.78,288.38Z" transform="translate(-359.53 -183.47)"/><path d="M971.07,190.55a27.92,27.92,0,0,0-35.55,17.33L838,490.78a28,28,0,0,0,17.33,35.55,27.66,27.66,0,0,0,9.11,1.53A28,28,0,0,0,890.88,509l97.52-282.9A28,28,0,0,0,971.07,190.55Z" transform="translate(-359.53 -183.47)"/><path d="M1321.67,515.21a4.61,4.61,0,0,1-4.88-4.88V492.77h-.49c-11.22,16.1-30.73,27.81-62.44,27.81-40,0-69.28-19-81.48-56.59-5.85-18.05-8.29-34.64-8.29-66.35s2.44-48.3,8.29-66.35c12.2-37.56,41.47-56.59,81.48-56.59,31.71,0,51.22,11.71,62.44,27.81h.49V188.35a4.61,4.61,0,0,1,4.88-4.88h44.88a4.61,4.61,0,0,1,4.88,4.88v322a4.61,4.61,0,0,1-4.88,4.88Zm-9.76-73.67c3.42-10.73,4.88-22.44,4.88-43.9s-1.46-33.18-4.88-43.91c-6.34-19.51-21.47-30.25-43.91-30.25-22,0-37.07,10.74-43.42,30.25-3.41,10.73-4.87,22.44-4.87,43.91s1.46,33.17,4.87,43.9c6.35,19.52,21.47,30.25,43.42,30.25C1290.44,471.79,1305.57,461.06,1311.91,441.54Z" transform="translate(-359.53 -183.47)"/><path d="M1407.83,455.21c-4.88-15.13-8.3-33.18-8.3-57.57s2.93-42.93,7.81-58.06c13.17-41,49.27-64.88,96.1-64.88,48.3,0,83.43,24.88,96.6,64.88,5.37,16.59,7.81,32.69,7.81,70.74,0,2.93-2,4.88-5.37,4.88H1457.59a2.59,2.59,0,0,0-2.93,2.93,51.74,51.74,0,0,0,3.41,18.05c7.81,22.93,26.35,35.61,52.69,35.61s43.42-9.75,55.13-22.44c2.44-2.44,4.88-2.93,7.32-1L1602,473.74c2.44,1.95,2.44,4.39.49,6.83-20,23.42-53.18,40-96.6,40C1456.12,520.58,1421,496.18,1407.83,455.21Zm142-103.92c-6.34-19-23.9-30.25-45.86-30.25-22.44,0-40,11.23-46.34,30.25a59.5,59.5,0,0,0-2.93,20,2.58,2.58,0,0,0,2.93,2.93h92.2a2.59,2.59,0,0,0,2.93-2.93A59.75,59.75,0,0,0,1549.79,351.29Z" transform="translate(-359.53 -183.47)"/><path d="M1632.39,455.69c-4.88-14.63-7.32-33.17-7.32-58.05s2.44-43.42,7.32-58.06c13.66-41.95,49.76-64.88,97.08-64.88,35.12,0,62.93,14.15,81.47,36.59,1.46,1.95,2,4.88-.49,6.83L1779.72,345c-2.44,1.95-4.88,1.46-6.83-1-11.71-13.17-23.91-20.49-43.42-20.49-21,0-37.08,10.25-43.91,30.74-3.9,11.71-4.88,25.37-4.88,43.42s1,32.2,4.88,43.9c6.83,20,22.93,30.25,43.91,30.25,19.51,0,31.71-7.32,43.42-20.49,1.95-2.44,4.39-2.44,6.83-.49l30.73,26.84c2.44,2,2,4.39.49,6.83-18.54,21.95-46.35,36.1-81.47,36.1C1682.15,520.58,1646.05,497.65,1632.39,455.69Z" transform="translate(-359.53 -183.47)"/><path d="M1988.08,515.21c-3.42,0-5.86-1.46-7.81-4.88l-59.52-98.54L1889,448.38v61.95a4.61,4.61,0,0,1-4.87,4.88h-44.89a4.61,4.61,0,0,1-4.88-4.88v-322a4.61,4.61,0,0,1,4.88-4.88h44.89a4.61,4.61,0,0,1,4.87,4.88V379.59l80.5-94.65c2.93-3.41,5.37-4.87,9.27-4.87h49.76c2.93,0,3.9,2.92,2,4.87l-74.64,85.87,85.86,139.52a3,3,0,0,1-2.44,4.88Z" transform="translate(-359.53 -183.47)"/><path d="M2267.47,515.21c-2.93,0-4.88-2-5.85-4.88l-45.37-150.26h-1l-45.86,150.26c-1,2.93-2.93,4.88-5.85,4.88h-40c-2.92,0-4.88-2-5.85-4.88l-74.16-225.39c-1-2.92.49-4.87,3.42-4.87h46.83c3.42,0,5.37,1.46,6.35,4.87l45.37,155.14h1l44.89-155.14a6.73,6.73,0,0,1,6.34-4.87h35.12a6.73,6.73,0,0,1,6.34,4.87L2287,440.08h1l42.93-155.14c1-3.41,2.93-4.87,6.34-4.87h46.84c2.92,0,4.39,1.95,3.41,4.87l-74.15,225.39c-1,2.93-2.93,4.88-5.86,4.88Z" transform="translate(-359.53 -183.47)"/><path d="M2396.17,455.21c-4.88-15.13-8.3-33.18-8.3-57.57s2.93-42.93,7.81-58.06c13.17-41,49.27-64.88,96.11-64.88,48.29,0,83.42,24.88,96.59,64.88,5.37,16.59,7.81,32.69,7.81,70.74,0,2.93-2,4.88-5.37,4.88H2445.93a2.59,2.59,0,0,0-2.93,2.93,51.51,51.51,0,0,0,3.42,18.05c7.8,22.93,26.34,35.61,52.68,35.61s43.42-9.75,55.13-22.44c2.44-2.44,4.88-2.93,7.32-1l28.78,25.36c2.44,1.95,2.44,4.39.49,6.83-20,23.42-53.18,40-96.59,40C2444.46,520.58,2409.34,496.18,2396.17,455.21Zm142-103.92c-6.34-19-23.9-30.25-45.86-30.25-22.44,0-40,11.23-46.34,30.25a59.75,59.75,0,0,0-2.93,20,2.59,2.59,0,0,0,2.93,2.93h92.2a2.59,2.59,0,0,0,2.93-2.93A59.75,59.75,0,0,0,2538.13,351.29Z" transform="translate(-359.53 -183.47)"/><path d="M2628.44,235.67a4.61,4.61,0,0,1-4.88-4.88V188.35a4.61,4.61,0,0,1,4.88-4.88h44.88a4.61,4.61,0,0,1,4.88,4.88v42.44a4.61,4.61,0,0,1-4.88,4.88Zm0,279.54a4.61,4.61,0,0,1-4.88-4.88V284.94a4.61,4.61,0,0,1,4.88-4.87h44.88a4.61,4.61,0,0,1,4.88,4.87V510.33a4.61,4.61,0,0,1-4.88,4.88Z" transform="translate(-359.53 -183.47)"/><path d="M2700.78,483.5a4.72,4.72,0,0,1,0-6.83l27.81-29.27a4.72,4.72,0,0,1,6.83,0c17.08,15.61,44.4,26.83,68.79,26.83,28.78,0,43.42-11.71,43.42-27.81,0-14.14-8.3-22.93-39-25.85l-25.37-2.44c-47.81-4.88-72.2-29.27-72.2-69.28,0-45.37,32.68-74.15,91.23-74.15,36.59,0,67.32,12.2,88.3,28.78a4.82,4.82,0,0,1,1,6.83l-23.91,28.79c-2,2.44-4.39,2.44-6.83,1-14.64-10.24-38.05-19.51-61.47-19.51s-35.61,10.24-35.61,24.39c0,13.66,8.29,21.95,38.54,24.88l25.37,2.44c49.27,4.88,72.69,30.25,72.69,68.79,0,46.83-34.15,79.52-98.55,79.52C2753.47,520.58,2720.3,501.55,2700.78,483.5Z" transform="translate(-359.53 -183.47)"/><path d="M2914.31,483.5a4.72,4.72,0,0,1,0-6.83l27.81-29.27a4.72,4.72,0,0,1,6.83,0c17.08,15.61,44.4,26.83,68.79,26.83,28.78,0,43.42-11.71,43.42-27.81,0-14.14-8.29-22.93-39-25.85l-25.37-2.44c-47.81-4.88-72.2-29.27-72.2-69.28,0-45.37,32.69-74.15,91.23-74.15,36.59,0,67.32,12.2,88.3,28.78a4.82,4.82,0,0,1,1,6.83l-23.91,28.79c-1.95,2.44-4.39,2.44-6.83,1-14.64-10.24-38-19.51-61.47-19.51s-35.61,10.24-35.61,24.39c0,13.66,8.29,21.95,38.54,24.88l25.37,2.44c49.27,4.88,72.69,30.25,72.69,68.79,0,46.83-34.15,79.52-98.55,79.52C2967,520.58,2933.83,501.55,2914.31,483.5Z" transform="translate(-359.53 -183.47)"/></svg>